{
  "accessors": [
    {
      "bufferView": 2,
      "componentType": 5126,
      "count": 65532,
      "max": [
        124.74990844726563,
        125.15663146972656,
        -36.77922821044922
      ],
      "min": [
        -124.74990844726563,
        -124.08568572998047,
        -191.71922302246094
      ],
      "type": "VEC3"
    },
    {
      "bufferView": 2,
      "byteOffset": 786384,
      "componentType": 5126,
      "count": 65532,
      "max": [
        1.0,
        0.9788981676101685,
        1.0
      ],
      "min": [
        -1.0,
        -1.0,
        -0.9835458993911743
      ],
      "type": "VEC3"
    },
    {
      "bufferView": 1,
      "componentType": 5126,
      "count": 65532,
      "max": [
        1.0,
        1.0
      ],
      "min": [
        0.0,
        0.0
      ],
      "type": "VEC2"
    },
    {
      "bufferView": 0,
      "componentType": 5125,
      "count": 309090,
      "type": "SCALAR"
    },
    {
      "bufferView": 2,
      "byteOffset": 1572768,
      "componentType": 5126,
      "count": 65532,
      "max": [
        124.74990844726563,
        42.806087493896484,
        -36.77922821044922
      ],
      "min": [
        -124.74990844726563,
        -125.15663146972656,
        -194.5440673828125
      ],
      "type": "VEC3"
    },
    {
      "bufferView": 2,
      "byteOffset": 2359152,
      "componentType": 5126,
      "count": 65532,
      "max": [
        1.0,
        1.0,
        1.0
      ],
      "min": [
        -1.0,
        -0.22359944880008698,
        -1.0
      ],
      "type": "VEC3"
    },
    {
      "bufferView": 1,
      "byteOffset": 524256,
      "componentType": 5126,
      "count": 65532,
      "max": [
        0.5555555820465088,
        1.0
      ],
      "min": [
        0.0,
        0.0
      ],
      "type": "VEC2"
    },
    {
      "bufferView": 0,
      "byteOffset": 1236360,
      "componentType": 5125,
      "count": 306975,
      "type": "SCALAR"
    },
    {
      "bufferView": 2,
      "byteOffset": 3145536,
      "componentType": 5126,
      "count": 6668,
      "max": [
        124.74990844726563,
        62.57831954956055,
        -115.6616439819336
      ],
      "min": [
        -124.64442443847656,
        -1.48006010055542,
        -194.5440673828125
      ],
      "type": "VEC3"
    },
    {
      "bufferView": 2,
      "byteOffset": 3225552,
      "componentType": 5126,
      "count": 6668,
      "max": [
        0.9990299940109253,
        0.01365636382251978,
        0.0
      ],
      "min": [
        -1.0,
        -0.34238383173942566,
        -1.0
      ],
      "type": "VEC3"
    },
    {
      "bufferView": 1,
      "byteOffset": 1048512,
      "componentType": 5126,
      "count": 6668,
      "max": [
        0.6111111044883728,
        1.0
      ],
      "min": [
        0.4826388955116272,
        0.005593657493591309
      ],
      "type": "VEC2"
    },
    {
      "bufferView": 0,
      "byteOffset": 2464260,
      "componentType": 5125,
      "count": 26751,
      "type": "SCALAR"
    },
    {
      "bufferView": 2,
      "byteOffset": 3305568,
      "componentType": 5126,
      "count": 33630,
      "max": [
        206.9873809814453,
        203.72512817382813,
        205.16314697265625
      ],
      "min": [
        -206.9873809814453,
        -183.6480255126953,
        -145.1803436279297
      ],
      "type": "VEC3"
    },
    {
      "bufferView": 2,
      "byteOffset": 3709128,
      "componentType": 5126,
      "count": 33630,
      "max": [
        1.0,
        0.9999739527702332,
        0.9999991059303284
      ],
      "min": [
        -1.0,
        -0.9999739527702332,
        -0.9999882578849792
      ],
      "type": "VEC3"
    },
    {
      "bufferView": 1,
      "byteOffset": 1101856,
      "componentType": 5126,
      "count": 33630,
      "max": [
        1.0,
        1.0
      ],
      "min": [
        0.0,
        0.0
      ],
      "type": "VEC2"
    },
    {
      "bufferView": 0,
      "byteOffset": 2571264,
      "componentType": 5125,
      "count": 167040,
      "type": "SCALAR"
    },
    {
      "bufferView": 2,
      "byteOffset": 4112688,
      "componentType": 5126,
      "count": 3124,
      "max": [
        57.43921661376953,
        -80.40044403076172,
        -99.96227264404297
      ],
      "min": [
        -50.01721954345703,
        -128.24253845214844,
        -148.71046447753906
      ],
      "type": "VEC3"
    },
    {
      "bufferView": 2,
      "byteOffset": 4150176,
      "componentType": 5126,
      "count": 3124,
      "max": [
        1.0,
        0.9962377548217773,
        0.9986962676048279
      ],
      "min": [
        -0.9989931583404541,
        -0.9962360262870789,
        -0.9986962676048279
      ],
      "type": "VEC3"
    },
    {
      "bufferView": 1,
      "byteOffset": 1370896,
      "componentType": 5126,
      "count": 3124,
      "max": [
        0.0,
        0.0
      ],
      "min": [
        0.0,
        0.0
      ],
      "type": "VEC2"
    },
    {
      "bufferView": 0,
      "byteOffset": 3239424,
      "componentType": 5125,
      "count": 18720,
      "type": "SCALAR"
    }
  ],
  "asset": {
    "extras": {
      "author": "Federico.Salvatierra (https://sketchfab.com/Federico.Salvatierra)",
      "license": "CC-BY-4.0 (http://creativecommons.org/licenses/by/4.0/)",
      "source": "https://sketchfab.com/3d-models/mushroom-mario-b186c12c97c447ec85cacd6f02918f59",
      "title": "Mushroom Mario"
    },
    "generator": "Sketchfab-10.99.0",
    "version": "2.0"
  },
  "bufferViews": [
    {
      "buffer": 0,
      "byteLength": 3314304,
      "name": "floatBufferViews",
      "target": 34963
    },
    {
      "buffer": 0,
      "byteLength": 1395888,
      "byteOffset": 3314304,
      "byteStride": 8,
      "name": "floatBufferViews",
      "target": 34962
    },
    {
      "buffer": 0,
      "byteLength": 4187664,
      "byteOffset": 4710192,
      "byteStride": 12,
      "name": "floatBufferViews",
      "target": 34962
    }
  ],
  "buffers": [
    {
      "byteLength": 8897856,
      "uri": "scene.bin"
    }
  ],
  "images": [
    {
      "uri": "textures/material_baseColor.png"
    },
    {
      "uri": "textures/Mat_1_baseColor.png"
    },
    {
      "uri": "textures/Mat_2_baseColor.png"
    }
  ],
  "materials": [
    {
      "doubleSided": true,
      "name": "material",
      "pbrMetallicRoughness": {
        "baseColorTexture": {
          "index": 0
        },
        "metallicFactor": 0.04970943783803537,
        "roughnessFactor": 0.7676844071171652
      }
    },
    {
      "doubleSided": true,
      "name": "Mat_1",
      "pbrMetallicRoughness": {
        "baseColorTexture": {
          "index": 1
        },
        "metallicFactor": 0.2262287210480081,
        "roughnessFactor": 0.6276863549161524
      }
    },
    {
      "doubleSided": true,
      "name": "Mat_2",
      "pbrMetallicRoughness": {
        "baseColorTexture": {
          "index": 2
        },
        "metallicFactor": 0.03753569416838209,
        "roughnessFactor": 0.5911651239071926
      }
    }
  ],
  "meshes": [
    {
      "name": "Object_0",
      "primitives": [
        {
          "attributes": {
            "NORMAL": 1,
            "POSITION": 0,
            "TEXCOORD_0": 2
          },
          "indices": 3,
          "material": 1,
          "mode": 4
        }
      ]
    },
    {
      "name": "Object_1",
      "primitives": [
        {
          "attributes": {
            "NORMAL": 5,
            "POSITION": 4,
            "TEXCOORD_0": 6
          },
          "indices": 7,
          "material": 1,
          "mode": 4
        }
      ]
    },
    {
      "name": "Object_2",
      "primitives": [
        {
          "attributes": {
            "NORMAL": 9,
            "POSITION": 8,
            "TEXCOORD_0": 10
          },
          "indices": 11,
          "material": 1,
          "mode": 4
        }
      ]
    },
    {
      "name": "Object_3",
      "primitives": [
        {
          "attributes": {
            "NORMAL": 13,
            "POSITION": 12,
            "TEXCOORD_0": 14
          },
          "indices": 15,
          "material": 2,
          "mode": 4
        }
      ]
    },
    {
      "name": "Object_4",
      "primitives": [
        {
          "attributes": {
            "NORMAL": 17,
            "POSITION": 16,
            "TEXCOORD_0": 18
          },
          "indices": 19,
          "material": 0,
          "mode": 4
        }
      ]
    }
  ],
  "nodes": [
    {
      "children": [
        1
      ],
      "matrix": [
        0.0016189167508855462,
        0.0,
        0.0,
        0.0,
        0.0,
        3.5947173035689644e-19,
        -0.0016189167508855462,
        0.0,
        0.0,
        0.0016189167508855462,
        3.5947173035689644e-19,
        0.0,
        0.0,
        0.0,
        0.0,
        1.0
      ],
      "name": "Sketchfab_model"
    },
    {
      "children": [
        2,
        3,
        4,
        5,
        6
      ],
      "name": "hongo_plastico.obj.cleaner.materialmerger.gles"
    },
    {
      "mesh": 0,
      "name": "Object_2"
    },
    {
      "mesh": 1,
      "name": "Object_3"
    },
    {
      "mesh": 2,
      "name": "Object_4"
    },
    {
      "mesh": 3,
      "name": "Object_5"
    },
    {
      "mesh": 4,
      "name": "Object_6"
    }
  ],
  "samplers": [
    {
      "magFilter": 9729,
      "minFilter": 9987,
      "wrapS": 10497,
      "wrapT": 10497
    }
  ],
  "scene": 0,
  "scenes": [
    {
      "name": "Sketchfab_Scene",
      "nodes": [
        0
      ]
    }
  ],
  "textures": [
    {
      "sampler": 0,
      "source": 0
    },
    {
      "sampler": 0,
      "source": 1
    },
    {
      "sampler": 0,
      "source": 2
    }
  ]
}
